<svg width="70" height="80" viewBox="0 0 70 80" fill="none" xmlns="http://www.w3.org/2000/svg">
<path d="M18.8347 77.3028C10.9342 76.7156 4.31386 71 2.16499 63.0459C-0.495956 53.156 -0.0387497 42.3303 3.7012 32.8073C8.71218 20.0275 19.5023 9.87156 32.1943 5.98165C42.7741 2.73395 55.8776 4.63303 62.1322 14.1101C66.2105 20.2936 66.558 28.2752 66.5854 35.7798C66.6128 42.9541 66.4757 50.2477 64.4914 57.1284C62.5071 64.0092 58.4563 70.5138 52.3571 73.844C46.8706 76.844 40.424 76.9725 34.2335 77.0459C28.811 77.1101 23.6811 77.6789 18.8256 77.3119L18.8347 77.3028Z" fill="#FFCD00"/>
<path d="M10.0838 18.4954C12.8545 14.1284 15.6983 11.844 20.0052 9.12844C21.7791 8.00917 23.928 6.6055 23.8274 4.44954C23.7451 2.58716 21.9163 1.31193 20.1606 0.917432C16.2195 0.0183495 12.0224 2.10092 9.50772 5.38532C6.99309 8.66973 5.9598 12.9358 5.74034 17.1193C5.67633 18.2752 5.81349 19.6881 6.81935 20.1743C8.00808 20.7615 9.26083 19.5688 10.0747 18.5046" fill="#FFCD00"/>
<path d="M63.6958 64.0275C63.8239 63.8073 63.9244 63.5596 64.025 63.3119C64.5737 61.8716 65.1315 61.4771 65.6801 59.8257C65.7624 59.5688 65.8539 59.3119 66.0093 59.0917C66.558 58.3303 67.7558 58.3395 68.5331 58.8716C70.0327 59.8807 70.1425 62.2477 69.0634 63.7064C67.9113 65.2569 65.8173 65.8532 63.9153 65.7798C63.7233 65.7798 63.5404 65.6422 63.4855 65.4587C63.3209 64.8991 63.4672 64.4495 63.705 64.0275H63.6958Z" fill="#FFCD00"/>
<path d="M67.765 31.2018C67.2712 34.4771 65.4332 37.5688 62.6626 39.3761C61.8304 39.9174 60.852 40.4495 60.6051 41.4037C60.4405 42.0092 60.6234 42.6514 60.788 43.2569C63.4124 52.8899 62.882 63.3486 59.2975 72.6605C59.0598 73.2844 58.1271 75.1468 58.1271 75.1468C58.1271 75.1468 43.7525 78.1009 39.3999 78.156L39.5919 76.7431L39.8114 75.156C40.1406 72.6972 40.5338 69.8807 40.9727 66.8532C43.5239 48.9266 47.4284 23.6606 47.6753 22.8532C48.4343 20.4128 50.0985 27.422 50.1717 29.9817C51.0861 28.7431 52.5491 27.9358 54.0671 27.8073C53.4819 25.0826 53.6007 23.0459 54.3963 20.4679C54.4511 20.2844 54.7163 20.2477 54.8169 20.422C56.3714 23.1193 56.5543 25.4771 57.4778 28.7064C57.6333 29.2477 57.5784 29.9633 58.1088 30.156C58.4288 30.2661 58.7763 30.1376 59.0963 29.9908C60.9435 29.1743 62.7997 28.3486 64.656 27.5321C65.5978 27.1193 66.5397 26.6972 67.4815 26.2844C67.957 27.8716 68.0484 29.5596 67.8016 31.2018H67.765Z" fill="white"/>
<path d="M41.4665 69.8716C41.4665 69.8716 38.7232 49.4771 30.0546 42.5596C29.9449 42.4679 30.2375 42.5596 30.2558 42.6972C30.4661 45.7798 31.6182 69.422 39.6285 76.789L41.4665 69.8716Z" fill="white"/>
<path d="M67.765 31.2018C66.2105 30.3394 65.1863 28.6972 64.6194 27.5413C65.5612 27.1284 66.5031 26.7064 67.4449 26.2936C67.9204 27.8807 68.0119 29.5688 67.765 31.211V31.2018Z" fill="#1A2B60"/>
<path d="M53.0887 34.6972C53.3355 35.3119 53.3355 35.8807 53.0887 35.9817C52.8418 36.0826 52.4577 35.6605 52.2108 35.0459C51.9639 34.4312 51.9639 33.8624 52.2108 33.7615C52.4486 33.6606 52.8418 34.0826 53.0887 34.6972Z" fill="#1A2B60"/>
<path d="M56.2891 33.1009C56.536 33.7156 56.536 34.2844 56.2891 34.3853C56.0514 34.4862 55.6582 34.0642 55.4113 33.4495C55.1644 32.8349 55.1644 32.2661 55.4113 32.1651C55.649 32.0642 56.0422 32.4862 56.2891 33.1009Z" fill="#1A2B60"/>
<path d="M61.7756 39.0642C61.7756 39.0642 58.63 42.7798 55.8685 39.3761" stroke="#1A2B60" stroke-width="0.25" stroke-miterlimit="10" stroke-linecap="round"/>
<path d="M5.94151 76.4128C5.94151 76.4128 3.44516 50.3761 12.187 31.4954L14.7839 38.3486C14.7839 38.3486 16.5944 37.7064 18.8347 38.3486L21.5414 31.4954C21.5414 31.4954 32.9624 55.4862 30.8318 79.2936L5.92322 76.4128H5.94151Z" fill="white"/>
<path d="M14.4181 42.0183C14.4181 42.789 14.1987 43.4128 13.9335 43.4128C13.6683 43.4128 13.4488 42.789 13.4488 42.0183C13.4488 41.2477 13.6683 40.6239 13.9335 40.6239C14.1987 40.6239 14.4181 41.2477 14.4181 42.0183Z" fill="#1A2B60"/>
<path d="M17.8015 42.0183C17.8015 42.789 17.582 43.4128 17.3168 43.4128C17.0516 43.4128 16.8322 42.789 16.8322 42.0183C16.8322 41.2477 17.0516 40.6239 17.3168 40.6239C17.582 40.6239 17.8015 41.2477 17.8015 42.0183Z" fill="#1A2B60"/>
<path d="M14.8205 47.0826L6.1884 41.2018" stroke="#1A2B60" stroke-width="0.13" stroke-miterlimit="10" stroke-linecap="round"/>
<path d="M14.8205 47.0826L4.44188 49.8073" stroke="#1A2B60" stroke-width="0.13" stroke-miterlimit="10" stroke-linecap="round"/>
<path d="M14.8205 47.0826L6.62732 45.945" stroke="#1A2B60" stroke-width="0.13" stroke-miterlimit="10" stroke-linecap="round"/>
<path d="M16.0458 47.2018L27.2016 42.2294" stroke="#1A2B60" stroke-width="0.13" stroke-miterlimit="10" stroke-linecap="round"/>
<path d="M16.0458 47.2018L26.4975 50.8257" stroke="#1A2B60" stroke-width="0.13" stroke-miterlimit="10" stroke-linecap="round"/>
<path d="M16.0458 47.2018L25.2265 46.2844" stroke="#1A2B60" stroke-width="0.13" stroke-miterlimit="10" stroke-linecap="round"/>
<path d="M21.8066 62.8807C30.0454 64.5046 38.7049 58.9449 39.0707 50.1835C39.2444 46.0459 37.5162 42.0826 34.2609 39.5229C31.6091 37.4312 24.3761 33.6422 28.2623 29.422C29.9449 27.5963 32.4503 26.8073 34.0597 24.8991C35.6691 22.9908 36.0623 20.3945 34.4803 18.3945C33.5476 17.2294 31.9108 18.8807 32.8344 20.0459C34.1237 21.6697 32.1212 23.7431 30.905 24.6147C29.259 25.789 27.4119 26.6972 26.1409 28.3394C23.2331 32.1009 25.9854 36.3945 29.2042 38.7982C30.905 40.0734 32.8253 41.0826 34.2609 42.6881C35.4313 44 36.172 45.6514 36.5286 47.367C37.2602 50.8624 36.2543 54.6147 33.7488 57.1835C30.8593 60.1376 26.4427 61.4404 22.4101 60.6422C20.947 60.3578 20.3252 62.5963 21.7883 62.8899L21.8066 62.8807Z" fill="white"/>
</svg>
