<svg width="328" height="96" viewBox="0 0 328 96" fill="none" xmlns="http://www.w3.org/2000/svg">
<path d="M27.8347 85.3028C19.9342 84.7156 13.3139 79 11.165 71.0459C8.50404 61.156 8.96125 50.3303 12.7012 40.8073C17.7122 28.0275 28.5023 17.8716 41.1943 13.9817C51.7741 10.7339 64.8776 12.633 71.1322 22.1101C75.2105 28.2936 75.558 36.2752 75.5854 43.7798C75.6128 50.9541 75.4757 58.2477 73.4914 65.1284C71.5071 72.0092 67.4563 78.5138 61.3571 81.844C55.8706 84.844 49.424 84.9725 43.2335 85.0459C37.811 85.1101 32.6811 85.6789 27.8256 85.3119L27.8347 85.3028Z" fill="#FFCD00"/>
<path d="M19.0838 26.4954C21.8545 22.1284 24.6983 19.844 29.0052 17.1284C30.7791 16.0092 32.928 14.6055 32.8274 12.4495C32.7451 10.5872 30.9163 9.31193 29.1606 8.91743C25.2195 8.01835 21.0224 10.1009 18.5077 13.3853C15.9931 16.6697 14.9598 20.9358 14.7403 25.1193C14.6763 26.2752 14.8135 27.6881 15.8193 28.1743C17.0081 28.7615 18.2608 27.5688 19.0747 26.5046" fill="#FFCD00"/>
<path d="M72.6958 72.0275C72.8239 71.8073 72.9244 71.5596 73.025 71.3119C73.5737 69.8716 74.1315 69.4771 74.6801 67.8257C74.7624 67.5688 74.8539 67.3119 75.0093 67.0917C75.558 66.3303 76.7558 66.3395 77.5331 66.8716C79.0327 67.8807 79.1425 70.2477 78.0634 71.7064C76.9113 73.2569 74.8173 73.8532 72.9153 73.7798C72.7233 73.7798 72.5404 73.6422 72.4855 73.4587C72.3209 72.8991 72.4672 72.4495 72.705 72.0275H72.6958Z" fill="#FFCD00"/>
<path d="M76.765 39.2018C76.2712 42.4771 74.4332 45.5688 71.6626 47.3761C70.8304 47.9174 69.852 48.4495 69.6051 49.4037C69.4405 50.0092 69.6234 50.6514 69.788 51.2569C72.4124 60.8899 71.882 71.3486 68.2975 80.6605C68.0598 81.2844 67.1271 83.1468 67.1271 83.1468C67.1271 83.1468 52.7525 86.1009 48.3999 86.156L48.5919 84.7431L48.8114 83.156C49.1406 80.6972 49.5338 77.8807 49.9727 74.8532C52.5239 56.9266 56.4284 31.6606 56.6753 30.8532C57.4343 28.4128 59.0985 35.422 59.1717 37.9817C60.0861 36.7431 61.5491 35.9358 63.0671 35.8073C62.4819 33.0826 62.6007 31.0459 63.3963 28.4679C63.4511 28.2844 63.7163 28.2477 63.8169 28.422C65.3714 31.1193 65.5543 33.4771 66.4778 36.7064C66.6333 37.2477 66.5784 37.9633 67.1088 38.156C67.4288 38.2661 67.7763 38.1376 68.0963 37.9908C69.9435 37.1743 71.7997 36.3486 73.656 35.5321C74.5978 35.1193 75.5397 34.6972 76.4815 34.2844C76.957 35.8716 77.0484 37.5596 76.8016 39.2018H76.765Z" fill="white"/>
<path d="M50.4665 77.8716C50.4665 77.8716 47.7232 57.4771 39.0546 50.5596C38.9449 50.4679 39.2375 50.5596 39.2558 50.6972C39.4661 53.7798 40.6182 77.422 48.6285 84.789L50.4665 77.8716Z" fill="white"/>
<path d="M76.765 39.2018C75.2105 38.3394 74.1863 36.6972 73.6194 35.5413C74.5612 35.1284 75.5031 34.7064 76.4449 34.2936C76.9204 35.8807 77.0119 37.5688 76.765 39.211V39.2018Z" fill="#1A2B60"/>
<path d="M62.0887 42.6972C62.3355 43.3119 62.3355 43.8807 62.0887 43.9817C61.8418 44.0826 61.4577 43.6605 61.2108 43.0459C60.9639 42.4312 60.9639 41.8624 61.2108 41.7615C61.4486 41.6606 61.8418 42.0826 62.0887 42.6972Z" fill="#1A2B60"/>
<path d="M65.2891 41.1009C65.536 41.7156 65.536 42.2844 65.2891 42.3853C65.0514 42.4862 64.6582 42.0642 64.4113 41.4495C64.1644 40.8349 64.1644 40.2661 64.4113 40.1651C64.649 40.0642 65.0422 40.4862 65.2891 41.1009Z" fill="#1A2B60"/>
<path d="M70.7756 47.0642C70.7756 47.0642 67.63 50.7798 64.8685 47.3761" stroke="#1A2B60" stroke-width="0.25" stroke-miterlimit="10" stroke-linecap="round"/>
<path d="M14.9415 84.4128C14.9415 84.4128 12.4452 58.3761 21.187 39.4954L23.7839 46.3486C23.7839 46.3486 25.5944 45.7064 27.8347 46.3486L30.5414 39.4954C30.5414 39.4954 41.9624 63.4862 39.8318 87.2936L14.9232 84.4128H14.9415Z" fill="white"/>
<path d="M23.4181 50.0183C23.4181 50.789 23.1987 51.4128 22.9335 51.4128C22.6683 51.4128 22.4488 50.789 22.4488 50.0183C22.4488 49.2477 22.6683 48.6239 22.9335 48.6239C23.1987 48.6239 23.4181 49.2477 23.4181 50.0183Z" fill="#1A2B60"/>
<path d="M26.8015 50.0183C26.8015 50.789 26.582 51.4128 26.3168 51.4128C26.0516 51.4128 25.8322 50.789 25.8322 50.0183C25.8322 49.2477 26.0516 48.6239 26.3168 48.6239C26.582 48.6239 26.8015 49.2477 26.8015 50.0183Z" fill="#1A2B60"/>
<path d="M23.8205 55.0826L15.1884 49.2018" stroke="#1A2B60" stroke-width="0.13" stroke-miterlimit="10" stroke-linecap="round"/>
<path d="M23.8205 55.0826L13.4419 57.8073" stroke="#1A2B60" stroke-width="0.13" stroke-miterlimit="10" stroke-linecap="round"/>
<path d="M23.8205 55.0826L15.6273 53.945" stroke="#1A2B60" stroke-width="0.13" stroke-miterlimit="10" stroke-linecap="round"/>
<path d="M25.0458 55.2018L36.2016 50.2294" stroke="#1A2B60" stroke-width="0.13" stroke-miterlimit="10" stroke-linecap="round"/>
<path d="M25.0458 55.2018L35.4975 58.8257" stroke="#1A2B60" stroke-width="0.13" stroke-miterlimit="10" stroke-linecap="round"/>
<path d="M25.0458 55.2018L34.2265 54.2844" stroke="#1A2B60" stroke-width="0.13" stroke-miterlimit="10" stroke-linecap="round"/>
<path d="M30.8066 70.8807C39.0454 72.5046 47.7049 66.945 48.0707 58.1835C48.2444 54.0459 46.5162 50.0826 43.2609 47.5229C40.6091 45.4312 33.3761 41.6422 37.2623 37.422C38.9449 35.5963 41.4503 34.8073 43.0597 32.8991C44.6691 30.9908 45.0623 28.3945 43.4803 26.3945C42.5476 25.2294 40.9108 26.8807 41.8344 28.0459C43.1237 29.6697 41.1212 31.7431 39.905 32.6147C38.259 33.789 36.4119 34.6972 35.1409 36.3394C32.2331 40.1009 34.9854 44.3945 38.2042 46.7982C39.905 48.0734 41.8253 49.0826 43.2609 50.6881C44.4313 52 45.172 53.6514 45.5286 55.367C46.2602 58.8624 45.2543 62.6147 42.7488 65.1835C39.8593 68.1376 35.4427 69.4404 31.4101 68.6422C29.947 68.3578 29.3252 70.5963 30.7883 70.8899L30.8066 70.8807Z" fill="white"/>
<path d="M88.6158 38.8899C88.6158 35.7431 88.5335 32.7156 88.378 29.789C88.3415 28.8899 88.5701 28.2752 89.0638 27.9266C89.5576 27.578 90.2526 27.4037 91.1487 27.4037L91.8071 27.4312C93.5353 27.2936 95.4647 27.2202 97.6045 27.2202C100.54 27.2202 102.798 27.844 104.389 29.1009C105.971 30.3578 106.767 32.1468 106.767 34.4679C106.767 36.9908 105.889 38.9358 104.133 40.3028C102.378 41.6697 99.8448 42.3486 96.5346 42.3486C95.9402 42.3486 95.483 42.1284 95.1538 41.6789C94.8246 41.2294 94.66 40.6881 94.66 40.055C94.66 39.422 94.8338 38.8257 95.1813 38.3395C95.5287 37.8532 95.9951 37.6055 96.5895 37.6055C98.0982 37.6055 99.2413 37.3395 100.028 36.7982C100.814 36.2569 101.207 35.4862 101.207 34.4679C101.207 33.633 100.896 32.9908 100.284 32.5413C99.671 32.0917 98.7932 31.8716 97.6685 31.8716C96.3243 31.8716 95.1173 31.9083 94.0657 31.9908C94.1297 33.7431 94.1571 35.6147 94.1571 37.5963C94.1571 40.7431 94.0748 44.4771 93.9194 48.8165C93.9011 49.6972 93.6633 50.2569 93.2244 50.5138C92.7764 50.7706 92.0906 50.8991 91.1579 50.8991C90.2252 50.8991 89.5759 50.7248 89.073 50.3761C88.5701 50.0275 88.3506 49.4037 88.3872 48.5138C88.5426 45.3945 88.6249 42.1743 88.6249 38.8807L88.6158 38.8899Z" fill="black"/>
<path d="M109.373 40.2385C109.373 37.211 109.291 33.7339 109.135 29.7982C109.099 28.8991 109.318 28.2844 109.803 27.9358C110.287 27.5872 110.973 27.4128 111.869 27.4128H122.22C122.797 27.4128 123.235 27.6605 123.546 28.156C123.848 28.6514 124.004 29.2294 124.004 29.8899C124.004 30.5872 123.812 31.156 123.437 31.5872C123.062 32.0275 122.376 32.2477 121.388 32.2477H114.786L114.878 36.7248H121.626C122.184 36.7248 122.614 36.9266 122.934 37.3394C123.254 37.7431 123.409 38.3028 123.409 38.9908C123.409 39.6789 123.171 40.2844 122.696 40.7248C122.22 41.1651 121.59 41.3853 120.794 41.3853H114.878L114.786 46.1009H122.522C123.098 46.1009 123.537 46.3486 123.848 46.844C124.159 47.3395 124.305 47.9174 124.305 48.578C124.305 49.2752 124.113 49.844 123.738 50.2752C123.363 50.7156 122.678 50.9358 121.69 50.9358H111.878C110.982 50.9358 110.297 50.7615 109.794 50.4128C109.291 50.0642 109.08 49.4404 109.135 48.5505C109.291 46.1651 109.373 43.3945 109.373 40.2569V40.2385Z" fill="black"/>
<path d="M131.767 39.3119C131.767 36.5046 131.73 34.1468 131.648 32.2385H126.975C126.399 32.2385 125.96 31.9908 125.65 31.4954C125.339 31 125.192 30.422 125.192 29.7615C125.192 29.0642 125.384 28.4954 125.759 28.0642C126.134 27.6239 126.82 27.4037 127.808 27.4037H141.185C141.761 27.4037 142.2 27.6514 142.511 28.1468C142.822 28.6422 142.969 29.2202 142.969 29.8807C142.969 30.578 142.776 31.1468 142.402 31.578C142.027 32.0183 141.341 32.2385 140.353 32.2385H137.199C137.253 34.1101 137.29 36.1376 137.29 38.3211C137.29 42.0367 137.208 45.5413 137.052 48.8257C137.016 49.7064 136.769 50.2661 136.321 50.5229C135.873 50.7798 135.196 50.9083 134.282 50.9083C133.367 50.9083 132.69 50.7248 132.188 50.367C131.685 50.0092 131.456 49.3945 131.52 48.5138C131.675 46.0642 131.758 42.9908 131.758 39.2936V39.3119H131.767Z" fill="black"/>
<path d="M150.768 38.8899C150.768 35.7431 150.686 32.7156 150.531 29.789C150.494 28.8899 150.723 28.2752 151.216 27.9266C151.71 27.578 152.405 27.4037 153.301 27.4037L153.96 27.4312C155.688 27.2936 157.617 27.2202 159.757 27.2202C162.692 27.2202 164.951 27.844 166.542 29.1009C168.124 30.3578 168.92 32.1468 168.92 34.4679C168.92 36.9908 168.042 38.9358 166.286 40.3028C164.53 41.6697 161.997 42.3486 158.687 42.3486C158.093 42.3486 157.636 42.1284 157.306 41.6789C156.977 41.2294 156.813 40.6881 156.813 40.055C156.813 39.422 156.986 38.8257 157.334 38.3395C157.681 37.8532 158.148 37.6055 158.742 37.6055C160.251 37.6055 161.394 37.3395 162.18 36.7982C162.967 36.2569 163.36 35.4862 163.36 34.4679C163.36 33.633 163.049 32.9908 162.436 32.5413C161.824 32.0917 160.946 31.8716 159.821 31.8716C158.477 31.8716 157.27 31.9083 156.218 31.9908C156.282 33.7431 156.31 35.6147 156.31 37.5963C156.31 40.7431 156.227 44.4771 156.072 48.8165C156.054 49.6972 155.816 50.2569 155.377 50.5138C154.929 50.7706 154.243 50.8991 153.311 50.8991C152.378 50.8991 151.729 50.7248 151.226 50.3761C150.723 50.0275 150.503 49.4037 150.54 48.5138C150.695 45.3945 150.778 42.1743 150.778 38.8807H150.768V38.8899Z" fill="black"/>
<path d="M171.526 39.6055C171.526 35.9817 171.443 32.7156 171.288 29.789C171.251 28.8899 171.48 28.2752 171.974 27.9266C172.467 27.578 173.162 27.4037 174.059 27.4037C174.955 27.4037 175.65 27.5321 176.098 27.789C176.546 28.0459 176.793 28.6147 176.857 29.4862C176.976 32.0092 177.04 35.0092 177.04 38.4679C177.04 41.156 177.012 43.6881 176.948 46.0734H184.209C184.785 46.0734 185.224 46.3211 185.534 46.8165C185.845 47.3119 185.992 47.8899 185.992 48.5505C185.992 49.2477 185.8 49.8165 185.425 50.2477C185.05 50.6881 184.364 50.9083 183.376 50.9083H174.04C173.144 50.9083 172.458 50.7339 171.955 50.3853C171.452 50.0367 171.242 49.4128 171.297 48.5229C171.452 46.1376 171.535 43.1651 171.535 39.6055H171.526Z" fill="black"/>
<path d="M189.247 39.7248C190.079 36.8991 191.094 33.4037 192.283 29.2202C192.466 28.6422 192.694 28.2294 192.978 27.9633C193.261 27.7064 193.59 27.5413 193.947 27.4862C194.304 27.4312 194.807 27.3945 195.465 27.3945H197.431C198.226 27.3945 198.766 27.4128 199.049 27.4404C199.333 27.4679 199.626 27.5963 199.909 27.8257C200.192 28.055 200.43 28.4587 200.604 29.0367C201.518 32.1193 202.414 35.211 203.311 38.3119C204.582 42.7706 205.514 45.9633 206.109 47.8899C206.209 48.1651 206.255 48.4679 206.255 48.789C206.255 49.2844 206.081 49.6697 205.734 49.9358C205.386 50.2018 204.856 50.4587 204.143 50.6972C203.631 50.8532 203.173 50.9358 202.771 50.9358C201.756 50.9358 201.107 50.3853 200.805 49.2936L199.946 45.8349H193.051L192.008 49.4771C191.853 49.9908 191.634 50.367 191.359 50.5963C191.085 50.8257 190.737 50.9358 190.317 50.9358C189.96 50.9358 189.439 50.8257 188.744 50.6055C188.086 50.3853 187.583 50.1101 187.217 49.7706C186.851 49.4312 186.668 48.9908 186.668 48.4587C186.668 48.156 186.723 47.8349 186.851 47.4771C187.619 45.1284 188.424 42.5413 189.256 39.7156L189.247 39.7248ZM196.206 33.1927C195.255 37.1468 194.569 39.9541 194.157 41.6055H198.949L196.837 32.3853H196.389L196.206 33.1927Z" fill="black"/>
<path d="M208.221 38.2936C208.221 34.5505 208.148 31.7156 208.011 29.789C207.974 29.0734 208.157 28.4954 208.578 28.055C208.998 27.6147 209.62 27.3945 210.452 27.3945C212.062 27.3945 213.086 27.9541 213.543 29.0642C214.494 31.5321 215.673 34.0367 217.063 36.5872C218.462 39.1376 219.752 41.1193 220.941 42.5505C220.84 41.9174 220.776 40.5596 220.73 38.4954C220.73 37.8624 220.721 37.3486 220.703 36.9725C220.639 33.055 220.593 30.6606 220.556 29.7798C220.502 28.8807 220.712 28.2661 221.197 27.9174C221.681 27.5688 222.376 27.3945 223.263 27.3945C224.15 27.3945 224.891 27.5229 225.348 27.7798C225.805 28.0367 226.052 28.6055 226.089 29.4771C226.189 31.3119 226.235 33.8073 226.235 36.9633C226.235 40.9174 226.162 44.8716 226.025 48.8073C226.006 49.6881 225.769 50.2477 225.33 50.5046C224.882 50.7615 224.196 50.8899 223.263 50.8899C222.632 50.8899 222.102 50.8073 221.672 50.633C221.242 50.4679 220.858 50.1743 220.502 49.7523C219.468 48.5596 218.298 46.9174 216.99 44.8257C215.683 42.7339 214.521 40.5596 213.515 38.2936C213.616 40.2202 213.662 42.3028 213.662 44.5321C213.662 46.0275 213.616 47.4495 213.515 48.7982C213.451 49.6789 213.205 50.2385 212.775 50.4954C212.336 50.7523 211.668 50.8807 210.754 50.8807C209.84 50.8807 209.163 50.6972 208.66 50.3394C208.157 49.9817 207.928 49.367 207.992 48.4862C208.148 45.8807 208.23 42.4679 208.23 38.2477V38.2936H208.221Z" fill="black"/>
<path d="M235.461 39.578C235.461 36.4954 235.379 33.2294 235.224 29.789C235.187 28.8899 235.416 28.2752 235.909 27.9266C236.403 27.578 237.098 27.4037 237.994 27.4037C240.353 27.2661 242.402 27.1927 244.148 27.1927C246.828 27.1927 248.922 27.7523 250.439 28.8807C251.957 30.0092 252.716 31.6147 252.716 33.6972C252.716 34.9266 252.46 35.9633 251.948 36.789C251.436 37.6147 250.769 38.1835 249.955 38.5046V38.9266C251.125 39.2661 252.031 39.9083 252.661 40.8624C253.292 41.8165 253.612 42.9725 253.612 44.3211C253.612 46.5872 252.735 48.3211 250.97 49.5229C249.205 50.7248 246.672 51.3303 243.389 51.3303C242.795 51.3303 242.338 51.1284 242.009 50.7339C241.679 50.3394 241.515 49.8624 241.515 49.3028C241.515 48.7431 241.689 48.2202 242.036 47.7982C242.383 47.367 242.85 47.156 243.444 47.156C244.935 47.156 246.069 46.8991 246.864 46.3761C247.66 45.8624 248.053 45.0734 248.053 44.0183C248.053 42.2294 246.873 41.3119 244.514 41.2752H243.563C242.987 41.2752 242.127 41.2936 240.975 41.3303C240.957 42.9174 240.884 45.422 240.765 48.8165C240.728 49.6972 240.481 50.2569 240.033 50.5138C239.585 50.7706 238.909 50.8991 237.994 50.8991C237.08 50.8991 236.403 50.7156 235.9 50.3578C235.397 50 235.169 49.3853 235.233 48.5046C235.388 45.7431 235.471 42.7523 235.471 39.5505V39.578H235.461ZM240.966 37.2202L244.624 37.1284C245.419 37.1468 246.032 36.9174 246.48 36.4312C246.928 35.945 247.148 35.2294 247.148 34.2936C247.148 33.3578 246.882 32.5688 246.361 32.055C245.84 31.5413 245.118 31.2752 244.203 31.2752C243.152 31.2752 242.036 31.3028 240.838 31.367C240.92 33.1009 240.957 35.0459 240.957 37.211L240.966 37.2202Z" fill="black"/>
<path d="M261.22 39.6697C261.22 44.0642 262.711 46.2661 265.683 46.2661C268.655 46.2661 270.236 43.9174 270.236 39.2202C270.236 34.5229 268.719 32.055 265.683 32.055C264.75 32.055 263.945 32.2752 263.26 32.7156C262.574 33.156 262.052 33.7706 261.696 34.5688C261.513 34.945 261.083 35.1376 260.388 35.1376C259.894 35.1376 259.373 35.0275 258.825 34.8073C258.276 34.5872 257.819 34.2752 257.444 33.8716C257.069 33.4679 256.877 33.0092 256.877 32.5138C256.877 32.1927 256.95 31.8899 257.087 31.5872C257.764 30.1193 258.843 28.9817 260.343 28.1835C261.842 27.3853 263.625 26.9908 265.71 26.9908C268.984 26.9908 271.48 28.0183 273.208 30.0826C274.937 32.1376 275.796 35.1927 275.796 39.2294C275.796 43.2661 274.927 46.2477 273.19 48.2844C271.453 50.3211 268.965 51.3394 265.71 51.3394C262.455 51.3394 259.977 50.3578 258.258 48.4037C256.539 46.4404 255.688 43.5229 255.688 39.6514V37.4128C255.725 36.8165 255.999 36.3578 256.493 36.0275C256.987 35.6972 257.663 35.5321 258.514 35.5321C259.501 35.5321 260.242 35.7064 260.727 36.055C261.211 36.4037 261.412 36.8991 261.339 37.5321C261.257 38.2477 261.22 38.9633 261.22 39.6789V39.6697Z" fill="black"/>
<path d="M283.88 39.6697C283.88 44.0642 285.37 46.2661 288.342 46.2661C291.314 46.2661 292.896 43.9174 292.896 39.2202C292.896 34.5229 291.378 32.055 288.342 32.055C287.409 32.055 286.604 32.2752 285.919 32.7156C285.233 33.156 284.712 33.7706 284.355 34.5688C284.172 34.945 283.742 35.1376 283.047 35.1376C282.554 35.1376 282.032 35.0275 281.484 34.8073C280.935 34.5872 280.478 34.2752 280.103 33.8716C279.728 33.4679 279.536 33.0092 279.536 32.5138C279.536 32.1927 279.609 31.8899 279.746 31.5872C280.423 30.1193 281.502 28.9817 283.002 28.1835C284.501 27.3853 286.284 26.9908 288.369 26.9908C291.643 26.9908 294.139 28.0183 295.868 30.0826C297.596 32.1376 298.455 35.1927 298.455 39.2294C298.455 43.2661 297.587 46.2477 295.849 48.2844C294.112 50.3211 291.625 51.3394 288.369 51.3394C285.114 51.3394 282.636 50.3578 280.917 48.4037C279.198 46.4404 278.347 43.5229 278.347 39.6514V37.4128C278.384 36.8165 278.658 36.3578 279.152 36.0275C279.646 35.6972 280.322 35.5321 281.173 35.5321C282.16 35.5321 282.901 35.7064 283.386 36.055C283.87 36.4037 284.072 36.8991 283.998 37.5321C283.916 38.2477 283.88 38.9633 283.88 39.6789V39.6697Z" fill="black"/>
<path d="M314.302 27.4037C314.896 27.4037 315.564 27.6697 316.295 28.211C316.808 28.5872 317.201 28.9266 317.457 29.2294C317.713 29.5321 317.841 29.8532 317.841 30.211C317.841 30.6055 317.676 31.0459 317.338 31.5229L316.268 33.0734C314.384 35.7982 312.93 37.8257 311.897 39.156L315.372 43.5413C316.323 44.7706 317.182 45.8716 317.96 46.8257C318.335 47.2844 318.527 47.7248 318.527 48.1376C318.527 48.4771 318.399 48.7982 318.143 49.0917C317.887 49.3945 317.521 49.7156 317.045 50.0734C316.295 50.6514 315.619 50.9358 315.024 50.9358C314.394 50.9358 313.845 50.5688 313.388 49.8349L308.806 42.3761C308.706 42.2018 308.569 42.0642 308.386 41.9725C308.203 41.8807 308.029 41.8349 307.846 41.8349C307.609 41.8349 307.407 41.9083 307.234 42.055C307.069 42.2018 306.978 42.4128 306.978 42.6697C306.978 43.6606 306.914 45.3761 306.795 47.7982L306.767 48.8073C306.731 49.6881 306.484 50.2477 306.036 50.5046C305.588 50.7615 304.911 50.8899 303.997 50.8899C303.082 50.8899 302.406 50.7064 301.903 50.3486C301.4 49.9908 301.171 49.3761 301.235 48.4954C301.391 46.1101 301.473 43.1376 301.473 39.578C301.473 36.0183 301.391 32.6881 301.235 29.7615C301.199 28.8624 301.427 28.2477 301.921 27.8991C302.415 27.5505 303.11 27.3761 304.006 27.3761C304.902 27.3761 305.597 27.5046 306.045 27.7615C306.493 28.0184 306.74 28.5872 306.804 29.4587C306.923 31.4495 306.987 33.6697 306.987 36.1101C306.987 36.3853 307.06 36.6055 307.197 36.7523C307.334 36.8991 307.508 36.9725 307.7 36.9725C308.038 36.9725 308.294 36.8073 308.477 36.4679L312.674 28.5046C313.049 27.7523 313.598 27.367 314.311 27.367V27.4037H314.302Z" fill="black"/>
<path d="M96.0591 58.6789H94.6692V63.5413C95.3093 63.4954 95.8945 63.4404 96.434 63.3853L96.4797 64.4404C95.355 64.6422 94.1297 64.7615 92.7946 64.8257C91.4596 64.8899 90.0148 64.9083 88.4695 64.9083L88.314 63.7248H89.9691V58.6789H88.5975V57.4954H96.05V58.6789H96.0591ZM98.0525 68.6881C98.5646 69.2569 99.2504 69.7248 100.092 70.1009C100.933 70.4771 101.838 70.7339 102.78 70.8624L102.222 71.9541C101.418 71.8257 100.64 71.6239 99.8996 71.3211C99.1498 71.0275 98.5006 70.6514 97.9062 70.2018C97.3118 69.7523 96.8729 69.2569 96.562 68.6881C96.2511 69.2477 95.8031 69.7523 95.2178 70.2018C94.6326 70.6514 93.9742 71.0183 93.2336 71.3211C92.4837 71.6239 91.7156 71.8257 90.9018 71.9541L90.3897 70.8624C91.3316 70.7339 92.2277 70.4771 93.0598 70.1009C93.8919 69.7248 94.5686 69.2477 95.0807 68.6881C95.5927 68.1193 95.8488 67.5138 95.8488 66.8532V66.3578H97.257V66.8532C97.257 67.5138 97.513 68.1193 98.0251 68.6881H98.0525ZM93.3616 63.633V58.6881H91.295V63.7064C91.7431 63.7064 92.438 63.6697 93.3616 63.633ZM98.9395 65.5872H97.6227V61.7248H95.5013V60.5596H97.6227V56.4771H98.9395V65.5872ZM101.884 67.055H100.549V56.1284H101.884V67.055Z" fill="black"/>
<path d="M123.181 64.3761H108.742V63.2477H123.181V64.3761ZM121.809 57.7339H119.367V60.8165H121.754V61.9083H110.141V60.8165H112.528V57.7339H110.086V56.6239H121.8V57.7339H121.809ZM121.333 69.2477H111.924V70.7706H121.818V71.844H110.534V68.2294H119.971V66.8532H110.507V65.7982H121.343V69.2569L121.333 69.2477ZM117.978 60.8073V57.7248H113.927V60.8073H117.978Z" fill="black"/>
<path d="M131.218 62.0459H126.6V64.4587C127.716 64.4587 128.695 64.4128 129.536 64.3486C130.386 64.2844 131.264 64.156 132.16 63.9725L132.316 65.1009C131.346 65.2844 130.395 65.4128 129.49 65.4862C128.576 65.5505 127.506 65.5872 126.28 65.5872H125.247V60.9358H129.883V58.6422H125.211V57.4954H131.218V62.0367V62.0459ZM138.47 71.6789H127.588V66.8807H128.978V70.4954H138.46V71.6789H138.47ZM137.985 67.9908H136.65V62.0917H134.419V67.5321H133.12V56.4587H134.419V60.9083H136.65V56.156H137.985V67.9908Z" fill="black"/>
<path d="M159.318 65.0642H152.78V66.945H157.544V72.0275H156.136V68.0917H146.498V66.945H151.418V65.0642H144.898V63.9174H159.336V65.0642H159.318ZM148.199 58.3486H156.045V56.5046H157.435V62.4404H146.809V56.5046H148.199V58.3486ZM156.045 61.3119V59.4128H148.199V61.3119H156.045Z" fill="black"/>
</svg>
